<svg xmlns="http://www.w3.org/2000/svg" version="1.1" xmlns:xlink="http://www.w3.org/1999/xlink" xmlns:svgjs="http://svgjs.com/svgjs" width="1440" height="560" preserveAspectRatio="none" viewBox="0 0 1440 560"><g mask="url(&quot;#SvgjsMask1007&quot;)" fill="none"><rect width="1440" height="560" x="0" y="0" fill="rgba(251, 239, 242, 1)"></rect><path d="M963.25-93.75C825.29-64.75 773.18 288.26 553.56 293.75 333.95 299.24 348.72 223.75 143.88 223.75-60.97 223.75-161.9 293.5-265.81 293.75" stroke="rgba(242, 132, 158, 1)" stroke-width="2"></path><path d="M928.9-84.11C731.28-41.89 654.92 467.28 343.93 473.73 32.95 480.18-90.98 340.19-241.03 339.33" stroke="rgba(242, 132, 158, 1)" stroke-width="2"></path><path d="M648.93-91.65C552.72-71.75 579.68 176.86 362.34 177.22 145 177.58-63.34 38.23-210.84 37.22" stroke="rgba(242, 132, 158, 1)" stroke-width="2"></path><path d="M1116.99-98.6C988.61-77.66 927.86 231.53 717.61 234.9 507.36 238.27 517.91 164.9 318.22 164.9 118.53 164.9 20.21 234.64-81.16 234.9" stroke="rgba(242, 132, 158, 1)" stroke-width="2"></path><path d="M1196.89-102.45C1029.65-46.16 1002.76 429.3 749.97 443.86 497.18 458.42 526.51 373.86 303.05 373.86 79.59 373.86-30.78 443.65-143.87 443.86" stroke="rgba(242, 132, 158, 1)" stroke-width="2"></path></g><defs><mask id="SvgjsMask1007"><rect width="1440" height="560" fill="#ffffff"></rect></mask></defs></svg>