<svg xmlns="http://www.w3.org/2000/svg" version="1.1" xmlns:xlink="http://www.w3.org/1999/xlink" xmlns:svgjs="http://svgjs.com/svgjs" width="1440" height="560" preserveAspectRatio="none" viewBox="0 0 1440 560"><g mask="url(&quot;#SvgjsMask1006&quot;)" fill="none"><rect width="1440" height="560" x="0" y="0" fill="rgba(255, 245, 247, 1)"></rect><path d="M67.29 317.56L132.25 355.06L132.25 430.06L67.29 467.56L2.34 430.06L2.34 355.06zM67.29 542.56L132.25 580.06L132.25 655.06L67.29 692.56L2.34 655.06L2.34 580.06zM197.2 317.56L262.15 355.06L262.15 430.06L197.2 467.56L132.25 430.06L132.25 355.06zM132.25 430.06L197.2 467.56L197.2 542.56L132.25 580.06L67.29 542.56L67.29 467.56zM262.15 205.06L327.11 242.56L327.11 317.56L262.15 355.06L197.2 317.56L197.2 242.56zM262.15 430.06L327.11 467.56L327.11 542.56L262.15 580.06L197.2 542.56L197.2 467.56zM327.11 542.56L392.06 580.06L392.06 655.06L327.11 692.56L262.15 655.06L262.15 580.06zM392.06 205.06L457.02 242.56L457.02 317.56L392.06 355.06L327.11 317.56L327.11 242.56zM392.06 430.06L457.02 467.56L457.02 542.56L392.06 580.06L327.11 542.56L327.11 467.56zM457.02 542.56L521.97 580.06L521.97 655.06L457.02 692.56L392.06 655.06L392.06 580.06zM651.88 -19.94L716.83 17.56L716.83 92.56L651.88 130.06L586.92 92.56L586.92 17.56zM716.83 542.56L781.79 580.06L781.79 655.06L716.83 692.56L651.88 655.06L651.88 580.06zM846.74 317.56L911.69 355.06L911.69 430.06L846.74 467.56L781.78 430.06L781.78 355.06zM781.78 430.06L846.74 467.56L846.74 542.56L781.78 580.06L716.83 542.56L716.83 467.56zM911.69 205.06L976.65 242.56L976.65 317.56L911.69 355.06L846.74 317.56L846.74 242.56zM976.65 542.56L1041.6 580.06L1041.6 655.06L976.65 692.56L911.69 655.06L911.69 580.06zM1106.55 317.56L1171.51 355.06L1171.51 430.06L1106.55 467.56L1041.6 430.06L1041.6 355.06zM1236.46 542.56L1301.41 580.06L1301.41 655.06L1236.46 692.56L1171.51 655.06L1171.51 580.06zM1301.41 -19.94L1366.37 17.56L1366.37 92.56L1301.41 130.06L1236.46 92.56L1236.46 17.56zM1301.41 205.06L1366.37 242.56L1366.37 317.56L1301.41 355.06L1236.46 317.56L1236.46 242.56zM1301.41 430.06L1366.37 467.56L1366.37 542.56L1301.41 580.06L1236.46 542.56L1236.46 467.56zM1366.37 542.56L1431.32 580.06L1431.32 655.06L1366.37 692.56L1301.41 655.06L1301.41 580.06zM1431.32 -19.94L1496.28 17.56L1496.28 92.56L1431.32 130.06L1366.37 92.56L1366.37 17.56zM1431.32 205.06L1496.28 242.56L1496.28 317.56L1431.32 355.06L1366.37 317.56L1366.37 242.56zM1496.28 317.56L1561.23 355.06L1561.23 430.06L1496.28 467.56L1431.32 430.06L1431.32 355.06zM1431.32 430.06L1496.28 467.56L1496.28 542.56L1431.32 580.06L1366.37 542.56L1366.37 467.56z" stroke="rgba(242, 132, 158, 1)" stroke-width="2"></path><path d="M59.79 317.56 a7.5 7.5 0 1 0 15 0 a7.5 7.5 0 1 0 -15 0zM124.75 355.06 a7.5 7.5 0 1 0 15 0 a7.5 7.5 0 1 0 -15 0zM124.75 430.06 a7.5 7.5 0 1 0 15 0 a7.5 7.5 0 1 0 -15 0zM59.79 467.56 a7.5 7.5 0 1 0 15 0 a7.5 7.5 0 1 0 -15 0zM-5.16 430.06 a7.5 7.5 0 1 0 15 0 a7.5 7.5 0 1 0 -15 0zM-5.16 355.06 a7.5 7.5 0 1 0 15 0 a7.5 7.5 0 1 0 -15 0zM59.79 542.56 a7.5 7.5 0 1 0 15 0 a7.5 7.5 0 1 0 -15 0zM124.75 580.06 a7.5 7.5 0 1 0 15 0 a7.5 7.5 0 1 0 -15 0zM124.75 655.06 a7.5 7.5 0 1 0 15 0 a7.5 7.5 0 1 0 -15 0zM59.79 692.56 a7.5 7.5 0 1 0 15 0 a7.5 7.5 0 1 0 -15 0zM-5.16 655.06 a7.5 7.5 0 1 0 15 0 a7.5 7.5 0 1 0 -15 0zM-5.16 580.06 a7.5 7.5 0 1 0 15 0 a7.5 7.5 0 1 0 -15 0zM189.7 317.56 a7.5 7.5 0 1 0 15 0 a7.5 7.5 0 1 0 -15 0zM254.65 355.06 a7.5 7.5 0 1 0 15 0 a7.5 7.5 0 1 0 -15 0zM254.65 430.06 a7.5 7.5 0 1 0 15 0 a7.5 7.5 0 1 0 -15 0zM189.7 467.56 a7.5 7.5 0 1 0 15 0 a7.5 7.5 0 1 0 -15 0zM189.7 542.56 a7.5 7.5 0 1 0 15 0 a7.5 7.5 0 1 0 -15 0zM254.65 205.06 a7.5 7.5 0 1 0 15 0 a7.5 7.5 0 1 0 -15 0zM319.61 242.56 a7.5 7.5 0 1 0 15 0 a7.5 7.5 0 1 0 -15 0zM319.61 317.56 a7.5 7.5 0 1 0 15 0 a7.5 7.5 0 1 0 -15 0zM189.7 242.56 a7.5 7.5 0 1 0 15 0 a7.5 7.5 0 1 0 -15 0zM319.61 467.56 a7.5 7.5 0 1 0 15 0 a7.5 7.5 0 1 0 -15 0zM319.61 542.56 a7.5 7.5 0 1 0 15 0 a7.5 7.5 0 1 0 -15 0zM254.65 580.06 a7.5 7.5 0 1 0 15 0 a7.5 7.5 0 1 0 -15 0zM384.56 580.06 a7.5 7.5 0 1 0 15 0 a7.5 7.5 0 1 0 -15 0zM384.56 655.06 a7.5 7.5 0 1 0 15 0 a7.5 7.5 0 1 0 -15 0zM319.61 692.56 a7.5 7.5 0 1 0 15 0 a7.5 7.5 0 1 0 -15 0zM254.65 655.06 a7.5 7.5 0 1 0 15 0 a7.5 7.5 0 1 0 -15 0zM384.56 205.06 a7.5 7.5 0 1 0 15 0 a7.5 7.5 0 1 0 -15 0zM449.52 242.56 a7.5 7.5 0 1 0 15 0 a7.5 7.5 0 1 0 -15 0zM449.52 317.56 a7.5 7.5 0 1 0 15 0 a7.5 7.5 0 1 0 -15 0zM384.56 355.06 a7.5 7.5 0 1 0 15 0 a7.5 7.5 0 1 0 -15 0zM384.56 430.06 a7.5 7.5 0 1 0 15 0 a7.5 7.5 0 1 0 -15 0zM449.52 467.56 a7.5 7.5 0 1 0 15 0 a7.5 7.5 0 1 0 -15 0zM449.52 542.56 a7.5 7.5 0 1 0 15 0 a7.5 7.5 0 1 0 -15 0zM514.47 580.06 a7.5 7.5 0 1 0 15 0 a7.5 7.5 0 1 0 -15 0zM514.47 655.06 a7.5 7.5 0 1 0 15 0 a7.5 7.5 0 1 0 -15 0zM449.52 692.56 a7.5 7.5 0 1 0 15 0 a7.5 7.5 0 1 0 -15 0zM644.38 -19.94 a7.5 7.5 0 1 0 15 0 a7.5 7.5 0 1 0 -15 0zM709.33 17.56 a7.5 7.5 0 1 0 15 0 a7.5 7.5 0 1 0 -15 0zM709.33 92.56 a7.5 7.5 0 1 0 15 0 a7.5 7.5 0 1 0 -15 0zM644.38 130.06 a7.5 7.5 0 1 0 15 0 a7.5 7.5 0 1 0 -15 0zM579.42 92.56 a7.5 7.5 0 1 0 15 0 a7.5 7.5 0 1 0 -15 0zM579.42 17.56 a7.5 7.5 0 1 0 15 0 a7.5 7.5 0 1 0 -15 0zM709.33 542.56 a7.5 7.5 0 1 0 15 0 a7.5 7.5 0 1 0 -15 0zM774.29 580.06 a7.5 7.5 0 1 0 15 0 a7.5 7.5 0 1 0 -15 0zM774.29 655.06 a7.5 7.5 0 1 0 15 0 a7.5 7.5 0 1 0 -15 0zM709.33 692.56 a7.5 7.5 0 1 0 15 0 a7.5 7.5 0 1 0 -15 0zM644.38 655.06 a7.5 7.5 0 1 0 15 0 a7.5 7.5 0 1 0 -15 0zM644.38 580.06 a7.5 7.5 0 1 0 15 0 a7.5 7.5 0 1 0 -15 0zM839.24 317.56 a7.5 7.5 0 1 0 15 0 a7.5 7.5 0 1 0 -15 0zM904.19 355.06 a7.5 7.5 0 1 0 15 0 a7.5 7.5 0 1 0 -15 0zM904.19 430.06 a7.5 7.5 0 1 0 15 0 a7.5 7.5 0 1 0 -15 0zM839.24 467.56 a7.5 7.5 0 1 0 15 0 a7.5 7.5 0 1 0 -15 0zM774.28 430.06 a7.5 7.5 0 1 0 15 0 a7.5 7.5 0 1 0 -15 0zM774.28 355.06 a7.5 7.5 0 1 0 15 0 a7.5 7.5 0 1 0 -15 0zM839.24 542.56 a7.5 7.5 0 1 0 15 0 a7.5 7.5 0 1 0 -15 0zM774.28 580.06 a7.5 7.5 0 1 0 15 0 a7.5 7.5 0 1 0 -15 0zM709.33 467.56 a7.5 7.5 0 1 0 15 0 a7.5 7.5 0 1 0 -15 0zM904.19 205.06 a7.5 7.5 0 1 0 15 0 a7.5 7.5 0 1 0 -15 0zM969.15 242.56 a7.5 7.5 0 1 0 15 0 a7.5 7.5 0 1 0 -15 0zM969.15 317.56 a7.5 7.5 0 1 0 15 0 a7.5 7.5 0 1 0 -15 0zM839.24 242.56 a7.5 7.5 0 1 0 15 0 a7.5 7.5 0 1 0 -15 0zM969.15 542.56 a7.5 7.5 0 1 0 15 0 a7.5 7.5 0 1 0 -15 0zM1034.1 580.06 a7.5 7.5 0 1 0 15 0 a7.5 7.5 0 1 0 -15 0zM1034.1 655.06 a7.5 7.5 0 1 0 15 0 a7.5 7.5 0 1 0 -15 0zM969.15 692.56 a7.5 7.5 0 1 0 15 0 a7.5 7.5 0 1 0 -15 0zM904.19 655.06 a7.5 7.5 0 1 0 15 0 a7.5 7.5 0 1 0 -15 0zM904.19 580.06 a7.5 7.5 0 1 0 15 0 a7.5 7.5 0 1 0 -15 0zM1099.05 317.56 a7.5 7.5 0 1 0 15 0 a7.5 7.5 0 1 0 -15 0zM1164.01 355.06 a7.5 7.5 0 1 0 15 0 a7.5 7.5 0 1 0 -15 0zM1164.01 430.06 a7.5 7.5 0 1 0 15 0 a7.5 7.5 0 1 0 -15 0zM1099.05 467.56 a7.5 7.5 0 1 0 15 0 a7.5 7.5 0 1 0 -15 0zM1034.1 430.06 a7.5 7.5 0 1 0 15 0 a7.5 7.5 0 1 0 -15 0zM1034.1 355.06 a7.5 7.5 0 1 0 15 0 a7.5 7.5 0 1 0 -15 0zM1228.96 542.56 a7.5 7.5 0 1 0 15 0 a7.5 7.5 0 1 0 -15 0zM1293.91 580.06 a7.5 7.5 0 1 0 15 0 a7.5 7.5 0 1 0 -15 0zM1293.91 655.06 a7.5 7.5 0 1 0 15 0 a7.5 7.5 0 1 0 -15 0zM1228.96 692.56 a7.5 7.5 0 1 0 15 0 a7.5 7.5 0 1 0 -15 0zM1164.01 655.06 a7.5 7.5 0 1 0 15 0 a7.5 7.5 0 1 0 -15 0zM1164.01 580.06 a7.5 7.5 0 1 0 15 0 a7.5 7.5 0 1 0 -15 0zM1293.91 -19.94 a7.5 7.5 0 1 0 15 0 a7.5 7.5 0 1 0 -15 0zM1358.87 17.56 a7.5 7.5 0 1 0 15 0 a7.5 7.5 0 1 0 -15 0zM1358.87 92.56 a7.5 7.5 0 1 0 15 0 a7.5 7.5 0 1 0 -15 0zM1293.91 130.06 a7.5 7.5 0 1 0 15 0 a7.5 7.5 0 1 0 -15 0zM1228.96 92.56 a7.5 7.5 0 1 0 15 0 a7.5 7.5 0 1 0 -15 0zM1228.96 17.56 a7.5 7.5 0 1 0 15 0 a7.5 7.5 0 1 0 -15 0zM1293.91 205.06 a7.5 7.5 0 1 0 15 0 a7.5 7.5 0 1 0 -15 0zM1358.87 242.56 a7.5 7.5 0 1 0 15 0 a7.5 7.5 0 1 0 -15 0zM1358.87 317.56 a7.5 7.5 0 1 0 15 0 a7.5 7.5 0 1 0 -15 0zM1293.91 355.06 a7.5 7.5 0 1 0 15 0 a7.5 7.5 0 1 0 -15 0zM1228.96 317.56 a7.5 7.5 0 1 0 15 0 a7.5 7.5 0 1 0 -15 0zM1228.96 242.56 a7.5 7.5 0 1 0 15 0 a7.5 7.5 0 1 0 -15 0zM1293.91 430.06 a7.5 7.5 0 1 0 15 0 a7.5 7.5 0 1 0 -15 0zM1358.87 467.56 a7.5 7.5 0 1 0 15 0 a7.5 7.5 0 1 0 -15 0zM1358.87 542.56 a7.5 7.5 0 1 0 15 0 a7.5 7.5 0 1 0 -15 0zM1228.96 467.56 a7.5 7.5 0 1 0 15 0 a7.5 7.5 0 1 0 -15 0zM1423.82 580.06 a7.5 7.5 0 1 0 15 0 a7.5 7.5 0 1 0 -15 0zM1423.82 655.06 a7.5 7.5 0 1 0 15 0 a7.5 7.5 0 1 0 -15 0zM1358.87 692.56 a7.5 7.5 0 1 0 15 0 a7.5 7.5 0 1 0 -15 0zM1423.82 -19.94 a7.5 7.5 0 1 0 15 0 a7.5 7.5 0 1 0 -15 0zM1488.78 17.56 a7.5 7.5 0 1 0 15 0 a7.5 7.5 0 1 0 -15 0zM1488.78 92.56 a7.5 7.5 0 1 0 15 0 a7.5 7.5 0 1 0 -15 0zM1423.82 130.06 a7.5 7.5 0 1 0 15 0 a7.5 7.5 0 1 0 -15 0zM1423.82 205.06 a7.5 7.5 0 1 0 15 0 a7.5 7.5 0 1 0 -15 0zM1488.78 242.56 a7.5 7.5 0 1 0 15 0 a7.5 7.5 0 1 0 -15 0zM1488.78 317.56 a7.5 7.5 0 1 0 15 0 a7.5 7.5 0 1 0 -15 0zM1423.82 355.06 a7.5 7.5 0 1 0 15 0 a7.5 7.5 0 1 0 -15 0zM1553.73 355.06 a7.5 7.5 0 1 0 15 0 a7.5 7.5 0 1 0 -15 0zM1553.73 430.06 a7.5 7.5 0 1 0 15 0 a7.5 7.5 0 1 0 -15 0zM1488.78 467.56 a7.5 7.5 0 1 0 15 0 a7.5 7.5 0 1 0 -15 0zM1423.82 430.06 a7.5 7.5 0 1 0 15 0 a7.5 7.5 0 1 0 -15 0zM1488.78 542.56 a7.5 7.5 0 1 0 15 0 a7.5 7.5 0 1 0 -15 0z" fill="rgba(242, 132, 158, 1)"></path><path d="M59.53 186.59L102.84 211.59L102.84 261.59L59.53 286.59L16.23 261.59L16.23 211.59zM59.53 336.59L102.84 361.59L102.84 411.59L59.53 436.59L16.23 411.59L16.23 361.59zM146.14 36.59L189.44 61.59L189.44 111.59L146.14 136.59L102.84 111.59L102.84 61.59zM232.74 36.59L276.05 61.59L276.05 111.59L232.74 136.59L189.44 111.59L189.44 61.59zM189.44 261.59L232.74 286.59L232.74 336.59L189.44 361.59L146.14 336.59L146.14 286.59zM189.44 411.59L232.74 436.59L232.74 486.59L189.44 511.59L146.14 486.59L146.14 436.59zM276.05 111.59L319.35 136.59L319.35 186.59L276.05 211.59L232.74 186.59L232.74 136.59zM276.05 261.59L319.35 286.59L319.35 336.59L276.05 361.59L232.74 336.59L232.74 286.59zM319.35 336.59L362.65 361.59L362.65 411.59L319.35 436.59L276.05 411.59L276.05 361.59zM362.65 111.59L405.95 136.59L405.95 186.59L362.65 211.59L319.35 186.59L319.35 136.59zM405.95 336.59L449.26 361.59L449.26 411.59L405.95 436.59L362.65 411.59L362.65 361.59zM362.65 411.59L405.95 436.59L405.95 486.59L362.65 511.59L319.35 486.59L319.35 436.59zM449.26 111.59L492.56 136.59L492.56 186.59L449.26 211.59L405.95 186.59L405.95 136.59zM492.56 186.59L535.86 211.59L535.86 261.59L492.56 286.59L449.26 261.59L449.26 211.59zM492.56 486.59L535.86 511.59L535.86 561.59L492.56 586.59L449.26 561.59L449.26 511.59zM579.16 186.59L622.47 211.59L622.47 261.59L579.16 286.59L535.86 261.59L535.86 211.59zM622.47 -38.41L665.77 -13.41L665.77 36.59L622.47 61.59L579.16 36.59L579.16 -13.41zM665.77 36.59L709.07 61.59L709.07 111.59L665.77 136.59L622.47 111.59L622.47 61.59zM665.77 336.59L709.07 361.59L709.07 411.59L665.77 436.59L622.47 411.59L622.47 361.59zM752.37 36.59L795.68 61.59L795.68 111.59L752.37 136.59L709.07 111.59L709.07 61.59zM752.37 336.59L795.68 361.59L795.68 411.59L752.37 436.59L709.07 411.59L709.07 361.59zM838.98 186.59L882.28 211.59L882.28 261.59L838.98 286.59L795.68 261.59L795.68 211.59zM838.98 336.59L882.28 361.59L882.28 411.59L838.98 436.59L795.68 411.59L795.68 361.59zM882.28 -38.41L925.58 -13.41L925.58 36.59L882.28 61.59L838.98 36.59L838.98 -13.41zM925.58 486.59L968.89 511.59L968.89 561.59L925.58 586.59L882.28 561.59L882.28 511.59zM968.89 111.59L1012.19 136.59L1012.19 186.59L968.89 211.59L925.58 186.59L925.58 136.59zM968.89 261.59L1012.19 286.59L1012.19 336.59L968.89 361.59L925.58 336.59L925.58 286.59zM968.89 411.59L1012.19 436.59L1012.19 486.59L968.89 511.59L925.58 486.59L925.58 436.59zM1012.19 486.59L1055.49 511.59L1055.49 561.59L1012.19 586.59L968.89 561.59L968.89 511.59zM1098.79 36.59L1142.1 61.59L1142.1 111.59L1098.79 136.59L1055.49 111.59L1055.49 61.59zM1142.1 111.59L1185.4 136.59L1185.4 186.59L1142.1 211.59L1098.79 186.59L1098.79 136.59zM1358.61 486.59L1401.91 511.59L1401.91 561.59L1358.61 586.59L1315.31 561.59L1315.31 511.59zM1401.91 111.59L1445.21 136.59L1445.21 186.59L1401.91 211.59L1358.61 186.59L1358.61 136.59zM1401.91 261.59L1445.21 286.59L1445.21 336.59L1401.91 361.59L1358.61 336.59L1358.61 286.59zM1401.91 411.59L1445.21 436.59L1445.21 486.59L1401.91 511.59L1358.61 486.59L1358.61 436.59z" stroke="rgba(255, 191, 206, 1)" stroke-width="2"></path></g><defs><mask id="SvgjsMask1006"><rect width="1440" height="560" fill="#ffffff"></rect></mask></defs></svg>