<svg xmlns="http://www.w3.org/2000/svg" version="1.1" xmlns:xlink="http://www.w3.org/1999/xlink" xmlns:svgjs="http://svgjs.com/svgjs" width="1440" height="560" preserveAspectRatio="none" viewBox="0 0 1440 560"><g mask="url(&quot;#SvgjsMask1021&quot;)" fill="none"><rect width="1440" height="560" x="0" y="0" fill="rgba(255, 246, 248, 1)"></rect><path d="M319 138L318 353" stroke-width="6" stroke="url(#SvgjsLinearGradient1022)" stroke-linecap="round" class="Up"></path><path d="M676 9L675 -285" stroke-width="8" stroke="url(#SvgjsLinearGradient1023)" stroke-linecap="round" class="Down"></path><path d="M666 335L665 93" stroke-width="8" stroke="url(#SvgjsLinearGradient1022)" stroke-linecap="round" class="Up"></path><path d="M73 132L72 -220" stroke-width="6" stroke="url(#SvgjsLinearGradient1023)" stroke-linecap="round" class="Down"></path><path d="M1381 549L1380 301" stroke-width="8" stroke="url(#SvgjsLinearGradient1022)" stroke-linecap="round" class="Up"></path><path d="M1319 222L1318 452" stroke-width="8" stroke="url(#SvgjsLinearGradient1023)" stroke-linecap="round" class="Down"></path><path d="M484 177L483 -97" stroke-width="8" stroke="url(#SvgjsLinearGradient1023)" stroke-linecap="round" class="Down"></path><path d="M22 381L21 748" stroke-width="6" stroke="url(#SvgjsLinearGradient1023)" stroke-linecap="round" class="Down"></path><path d="M97 349L96 44" stroke-width="6" stroke="url(#SvgjsLinearGradient1023)" stroke-linecap="round" class="Down"></path><path d="M996 89L995 -245" stroke-width="8" stroke="url(#SvgjsLinearGradient1023)" stroke-linecap="round" class="Down"></path><path d="M998 108L997 286" stroke-width="6" stroke="url(#SvgjsLinearGradient1022)" stroke-linecap="round" class="Up"></path><path d="M597 186L596 -202" stroke-width="10" stroke="url(#SvgjsLinearGradient1022)" stroke-linecap="round" class="Up"></path><path d="M28 8L27 -400" stroke-width="10" stroke="url(#SvgjsLinearGradient1022)" stroke-linecap="round" class="Up"></path><path d="M1436 127L1435 364" stroke-width="10" stroke="url(#SvgjsLinearGradient1022)" stroke-linecap="round" class="Up"></path><path d="M405 128L404 404" stroke-width="10" stroke="url(#SvgjsLinearGradient1023)" stroke-linecap="round" class="Down"></path><path d="M1234 110L1233 -277" stroke-width="6" stroke="url(#SvgjsLinearGradient1023)" stroke-linecap="round" class="Down"></path><path d="M151 170L150 -184" stroke-width="10" stroke="url(#SvgjsLinearGradient1022)" stroke-linecap="round" class="Up"></path><path d="M324 509L323 345" stroke-width="6" stroke="url(#SvgjsLinearGradient1022)" stroke-linecap="round" class="Up"></path><path d="M1364 167L1363 580" stroke-width="10" stroke="url(#SvgjsLinearGradient1022)" stroke-linecap="round" class="Up"></path><path d="M725 516L724 793" stroke-width="10" stroke="url(#SvgjsLinearGradient1022)" stroke-linecap="round" class="Up"></path><path d="M449 185L448 528" stroke-width="6" stroke="url(#SvgjsLinearGradient1023)" stroke-linecap="round" class="Down"></path><path d="M998 154L997 563" stroke-width="8" stroke="url(#SvgjsLinearGradient1023)" stroke-linecap="round" class="Down"></path><path d="M65 59L64 -335" stroke-width="6" stroke="url(#SvgjsLinearGradient1023)" stroke-linecap="round" class="Down"></path><path d="M270 16L269 418" stroke-width="8" stroke="url(#SvgjsLinearGradient1023)" stroke-linecap="round" class="Down"></path><path d="M643 245L642 492" stroke-width="8" stroke="url(#SvgjsLinearGradient1023)" stroke-linecap="round" class="Down"></path><path d="M585 75L584 385" stroke-width="8" stroke="url(#SvgjsLinearGradient1022)" stroke-linecap="round" class="Up"></path><path d="M531 377L530 -3" stroke-width="10" stroke="url(#SvgjsLinearGradient1022)" stroke-linecap="round" class="Up"></path><path d="M692 542L691 697" stroke-width="8" stroke="url(#SvgjsLinearGradient1022)" stroke-linecap="round" class="Up"></path><path d="M727 21L726 362" stroke-width="10" stroke="url(#SvgjsLinearGradient1023)" stroke-linecap="round" class="Down"></path><path d="M1275 225L1274 609" stroke-width="8" stroke="url(#SvgjsLinearGradient1023)" stroke-linecap="round" class="Down"></path><path d="M1127 197L1126 466" stroke-width="8" stroke="url(#SvgjsLinearGradient1023)" stroke-linecap="round" class="Down"></path><path d="M355 67L354 438" stroke-width="10" stroke="url(#SvgjsLinearGradient1022)" stroke-linecap="round" class="Up"></path><path d="M1309 144L1308 316" stroke-width="10" stroke="url(#SvgjsLinearGradient1022)" stroke-linecap="round" class="Up"></path><path d="M984 147L983 -261" stroke-width="10" stroke="url(#SvgjsLinearGradient1023)" stroke-linecap="round" class="Down"></path><path d="M480 108L479 484" stroke-width="6" stroke="url(#SvgjsLinearGradient1022)" stroke-linecap="round" class="Up"></path><path d="M360 428L359 755" stroke-width="10" stroke="url(#SvgjsLinearGradient1022)" stroke-linecap="round" class="Up"></path></g><defs><mask id="SvgjsMask1021"><rect width="1440" height="560" fill="#ffffff"></rect></mask><linearGradient x1="0%" y1="100%" x2="0%" y2="0%" id="SvgjsLinearGradient1022"><stop stop-color="rgba(242, 132, 158, 0)" offset="0"></stop><stop stop-color="rgba(242, 132, 158, 1)" offset="1"></stop></linearGradient><linearGradient x1="0%" y1="0%" x2="0%" y2="100%" id="SvgjsLinearGradient1023"><stop stop-color="rgba(242, 132, 158, 0)" offset="0"></stop><stop stop-color="rgba(242, 132, 158, 1)" offset="1"></stop></linearGradient></defs></svg>