<svg xmlns="http://www.w3.org/2000/svg" version="1.1" xmlns:xlink="http://www.w3.org/1999/xlink" xmlns:svgjs="http://svgjs.com/svgjs" width="1440" height="560" preserveAspectRatio="none" viewBox="0 0 1440 560"><g mask="url(&quot;#SvgjsMask1003&quot;)" fill="none"><rect width="1440" height="560" x="0" y="0" fill="rgba(242, 132, 158, 1)"></rect><path d="M0,346.028C72.093,333.543,153.052,373.484,214.724,334.116C276.419,294.733,287.908,211.901,315.996,144.311C343.056,79.194,376.851,16.445,376.035,-54.066C375.149,-130.657,356.482,-207.879,311.208,-269.663C263.924,-334.189,198.225,-394.572,118.906,-404.957C41.675,-415.068,-18.337,-337.719,-94.788,-322.818C-183.327,-305.56,-291.057,-370.209,-359.689,-311.672C-426.335,-254.83,-410.056,-145.679,-405.007,-58.231C-400.648,17.269,-353.761,79.342,-332.916,152.038C-307.272,241.471,-348.892,370.962,-268.506,417.803C-186.805,465.41,-93.173,362.164,0,346.028" fill="#eb4069"></path><path d="M1440 1055.932C1548.871 1045.586 1659.065 1098.664 1761.413 1060.128 1874.922 1017.39 1993.458 945.6990000000001 2035.208 831.823 2076.6620000000003 718.754 1994.298 601.892 1972.8600000000001 483.38599999999997 1952.394 370.25 1989.298 236.12 1912.0430000000001 150.97199999999998 1834.841 65.88299999999998 1696.799 93.13600000000002 1587.279 58.41399999999999 1474.564 22.678999999999974 1371.042-94.168 1259.117-56.03200000000004 1146.3809999999999-17.620000000000005 1131.5149999999999 136.483 1066.0819999999999 235.998 1010.924 319.88599999999997 942.313 389.95799999999997 904.673 483.032 857.545 599.569 788.133 721.4159999999999 820.674 842.837 854.247 968.108 954.1379999999999 1082.9940000000001 1076.774 1125.19 1195.734 1166.121 1314.759 1067.834 1440 1055.932" fill="#f9c8d3"></path></g><defs><mask id="SvgjsMask1003"><rect width="1440" height="560" fill="#ffffff"></rect></mask></defs></svg>